<svg xmlns="http://www.w3.org/2000/svg" xmlns:xlink="http://www.w3.org/1999/xlink" width="750" zoomAndPan="magnify" viewBox="0 0 562.5 562.499982" height="750" preserveAspectRatio="xMidYMid meet" version="1.2"><defs><clipPath id="8cd2d365c9"><path d="M 201 124 L 464 124 L 464 456 L 201 456 Z M 201 124 "/></clipPath><clipPath id="4e89e54266"><path d="M 279.726562 13.914062 L 620.902344 208.269531 L 426.546875 549.445312 L 85.371094 355.089844 Z M 279.726562 13.914062 "/></clipPath><clipPath id="a3a48d5667"><path d="M 279.726562 13.914062 L 620.902344 208.269531 L 426.546875 549.445312 L 85.371094 355.089844 Z M 279.726562 13.914062 "/></clipPath><clipPath id="0367490b9f"><path d="M 218 142 L 452 142 L 452 437 L 218 437 Z M 218 142 "/></clipPath><clipPath id="15f0d057f6"><path d="M 287.898438 44.394531 L 590.660156 216.867188 L 418.1875 519.625 L 115.425781 347.15625 Z M 287.898438 44.394531 "/></clipPath><clipPath id="db7ed7769c"><path d="M 287.898438 44.394531 L 590.660156 216.867188 L 418.1875 519.625 L 115.425781 347.15625 Z M 287.898438 44.394531 "/></clipPath><clipPath id="4a8f926a70"><path d="M 228 156 L 442 156 L 442 426 L 228 426 Z M 228 156 "/></clipPath><clipPath id="1fc4e77807"><path d="M 292.125 66.683594 L 569.496094 224.691406 L 411.488281 502.058594 L 134.121094 344.050781 Z M 292.125 66.683594 "/></clipPath><clipPath id="42cd1f94a0"><path d="M 292.125 66.683594 L 569.496094 224.691406 L 411.488281 502.058594 L 134.121094 344.050781 Z M 292.125 66.683594 "/></clipPath><clipPath id="a68882cfb6"><path d="M 98 125 L 362 125 L 362 456 L 98 456 Z M 98 125 "/></clipPath><clipPath id="8b92543726"><path d="M -58.921875 210.175781 L 280.359375 12.53125 L 478 351.816406 L 138.71875 549.457031 Z M -58.921875 210.175781 "/></clipPath><clipPath id="a2cf51ab19"><path d="M -58.921875 210.175781 L 280.359375 12.53125 L 478 351.816406 L 138.71875 549.457031 Z M -58.921875 210.175781 "/></clipPath><clipPath id="56db0d1f50"><path d="M 111 142 L 345 142 L 345 436 L 111 436 Z M 111 142 "/></clipPath><clipPath id="121c630aaf"><path d="M -28.457031 218.390625 L 272.625 43 L 448.011719 344.082031 L 146.933594 519.46875 Z M -28.457031 218.390625 "/></clipPath><clipPath id="0a22ff3d7d"><path d="M -28.457031 218.390625 L 272.625 43 L 448.011719 344.082031 L 146.933594 519.46875 Z M -28.457031 218.390625 "/></clipPath><clipPath id="5c88e4690d"><path d="M 120 156 L 335 156 L 335 425 L 120 425 Z M 120 156 "/></clipPath><clipPath id="56135b552b"><path d="M -7.050781 225.917969 L 268.777344 65.238281 L 429.457031 341.066406 L 153.625 501.746094 Z M -7.050781 225.917969 "/></clipPath><clipPath id="3e9705f804"><path d="M -7.050781 225.917969 L 268.777344 65.238281 L 429.457031 341.066406 L 153.625 501.746094 Z M -7.050781 225.917969 "/></clipPath></defs><g id="11713474d9"><path style=" stroke:none;fill-rule:nonzero;fill:#000000;fill-opacity:1;" d="M 281.695312 417.996094 C 228.472656 417.996094 185.328125 381.507812 185.328125 317.40625 C 185.328125 215.351562 281.695312 132.613281 281.695312 132.613281 C 281.695312 132.617188 378.0625 215.351562 378.0625 317.40625 C 378.0625 380.566406 334.917969 417.996094 281.695312 417.996094 Z M 281.695312 94.785156 C 281.695312 94.785156 159.773438 199.457031 159.773438 328.582031 C 159.777344 409.671875 214.363281 455.832031 281.695312 455.832031 C 349.027344 455.832031 403.617188 408.492188 403.617188 328.582031 C 403.617188 199.457031 281.695312 94.785156 281.695312 94.785156 "/><path style=" stroke:none;fill-rule:nonzero;fill:#ffbd59;fill-opacity:1;" d="M 281.691406 402.109375 C 234.488281 402.109375 196.21875 369.746094 196.21875 312.890625 C 196.21875 222.371094 281.691406 148.984375 281.691406 148.984375 C 281.691406 148.988281 367.167969 222.371094 367.167969 312.890625 C 367.167969 368.910156 328.898438 402.109375 281.691406 402.109375 Z M 281.691406 115.433594 C 281.691406 115.433594 173.550781 208.273438 173.550781 322.800781 C 173.554688 394.726562 221.96875 435.667969 281.691406 435.667969 C 341.414062 435.667969 389.832031 393.679688 389.832031 322.800781 C 389.832031 208.273438 281.691406 115.433594 281.691406 115.433594 "/><path style=" stroke:none;fill-rule:nonzero;fill:#ffbd59;fill-opacity:1;" d="M 281.691406 393.992188 C 238.472656 393.992188 203.4375 364.359375 203.4375 312.308594 C 203.4375 229.429688 281.691406 162.242188 281.691406 162.242188 C 281.691406 162.246094 359.949219 229.429688 359.949219 312.308594 C 359.949219 363.597656 324.914062 393.992188 281.691406 393.992188 Z M 281.691406 131.527344 C 281.691406 131.527344 182.683594 216.523438 182.683594 321.382812 C 182.6875 387.234375 227.015625 424.714844 281.691406 424.714844 C 336.371094 424.714844 380.699219 386.273438 380.699219 321.382812 C 380.699219 216.523438 281.691406 131.527344 281.691406 131.527344 "/><g clip-rule="nonzero" clip-path="url(#8cd2d365c9)"><g clip-rule="nonzero" clip-path="url(#4e89e54266)"><g clip-rule="nonzero" clip-path="url(#a3a48d5667)"><path style=" stroke:none;fill-rule:nonzero;fill:#000000;fill-opacity:1;" d="M 282.511719 405.679688 C 236.265625 379.335938 216.835938 326.277344 248.566406 270.578125 C 299.082031 181.902344 423.769531 157.710938 423.769531 157.710938 C 423.769531 157.714844 466.550781 277.300781 416.035156 365.980469 C 384.773438 420.859375 328.753906 432.023438 282.511719 405.679688 Z M 442.492188 124.84375 C 442.492188 124.84375 284.746094 155.441406 220.832031 267.640625 C 180.695312 338.101562 205.277344 405.226562 263.78125 438.554688 C 322.289062 471.882812 393.152344 457.773438 432.707031 388.335938 C 496.621094 276.140625 442.492188 124.84375 442.492188 124.84375 "/></g></g></g><g clip-rule="nonzero" clip-path="url(#0367490b9f)"><g clip-rule="nonzero" clip-path="url(#15f0d057f6)"><g clip-rule="nonzero" clip-path="url(#db7ed7769c)"><path style=" stroke:none;fill-rule:nonzero;fill:#7ed957;fill-opacity:1;" d="M 290.367188 391.875 C 249.351562 368.511719 232.117188 321.449219 260.261719 272.046875 C 305.066406 193.390625 415.660156 171.9375 415.660156 171.9375 C 415.660156 171.941406 453.605469 278.007812 408.800781 356.664062 C 381.070312 405.339844 331.386719 415.242188 290.367188 391.875 Z M 432.265625 142.785156 C 432.265625 142.785156 292.351562 169.925781 235.660156 269.4375 C 200.058594 331.9375 221.863281 391.476562 273.757812 421.035156 C 325.648438 450.597656 388.503906 438.078125 423.585938 376.492188 C 480.277344 276.980469 432.265625 142.785156 432.265625 142.785156 "/></g></g></g><g clip-rule="nonzero" clip-path="url(#4a8f926a70)"><g clip-rule="nonzero" clip-path="url(#1fc4e77807)"><g clip-rule="nonzero" clip-path="url(#42cd1f94a0)"><path style=" stroke:none;fill-rule:nonzero;fill:#7ed957;fill-opacity:1;" d="M 294.386719 384.824219 C 256.835938 363.429688 241.058594 320.34375 266.824219 275.113281 C 307.84375 203.101562 409.097656 183.457031 409.097656 183.457031 C 409.097656 183.460938 443.839844 280.570312 402.816406 352.582031 C 377.429688 397.148438 331.941406 406.214844 294.386719 384.824219 Z M 424.304688 156.765625 C 424.304688 156.765625 296.203125 181.613281 244.300781 272.726562 C 211.707031 329.945312 231.667969 384.457031 279.179688 411.519531 C 326.691406 438.585938 384.234375 427.125 416.355469 370.738281 C 468.257812 279.628906 424.304688 156.765625 424.304688 156.765625 "/></g></g></g><g clip-rule="nonzero" clip-path="url(#a68882cfb6)"><g clip-rule="nonzero" clip-path="url(#8b92543726)"><g clip-rule="nonzero" clip-path="url(#a2cf51ab19)"><path style=" stroke:none;fill-rule:nonzero;fill:#000000;fill-opacity:1;" d="M 281.378906 404.296875 C 235.390625 431.085938 179.742188 421.273438 147.476562 365.886719 C 96.105469 277.699219 137.730469 157.703125 137.730469 157.703125 C 137.734375 157.707031 262.644531 180.6875 314.015625 268.871094 C 345.808594 323.445312 327.367188 377.507812 281.378906 404.296875 Z M 118.691406 125.015625 C 118.691406 125.015625 66.027344 276.832031 131.023438 388.402344 C 171.84375 458.472656 242.242188 470.882812 300.421875 436.988281 C 358.605469 403.097656 381.945312 334.714844 341.722656 265.664062 C 276.726562 154.089844 118.691406 125.015625 118.691406 125.015625 "/></g></g></g><g clip-rule="nonzero" clip-path="url(#56db0d1f50)"><g clip-rule="nonzero" clip-path="url(#121c630aaf)"><g clip-rule="nonzero" clip-path="url(#0a22ff3d7d)"><path style=" stroke:none;fill-rule:nonzero;fill:#5ce1e6;fill-opacity:1;" d="M 273.378906 390.566406 C 232.589844 414.328125 183.234375 405.628906 154.613281 356.5 C 109.050781 278.285156 145.96875 171.847656 145.96875 171.847656 C 145.972656 171.851562 256.765625 192.234375 302.328125 270.453125 C 330.527344 318.859375 314.167969 366.808594 273.378906 390.566406 Z M 129.082031 142.859375 C 129.082031 142.859375 82.371094 277.511719 140.019531 376.472656 C 176.226562 438.621094 238.667969 449.628906 290.273438 419.566406 C 341.875 389.503906 362.578125 328.851562 326.902344 267.609375 C 269.253906 168.644531 129.082031 142.859375 129.082031 142.859375 "/></g></g></g><g clip-rule="nonzero" clip-path="url(#5c88e4690d)"><g clip-rule="nonzero" clip-path="url(#56135b552b)"><g clip-rule="nonzero" clip-path="url(#3e9705f804)"><path style=" stroke:none;fill-rule:nonzero;fill:#5ce1e6;fill-opacity:1;" d="M 269.296875 383.554688 C 231.949219 405.308594 186.761719 397.34375 160.558594 352.363281 C 118.84375 280.75 152.644531 183.304688 152.644531 183.304688 C 152.644531 183.308594 254.082031 201.96875 295.800781 273.582031 C 321.617188 317.898438 306.640625 361.800781 269.296875 383.554688 Z M 137.183594 156.761719 C 137.183594 156.761719 94.414062 280.042969 147.195312 370.648438 C 180.34375 427.550781 237.515625 437.625 284.761719 410.101562 C 332.007812 382.582031 350.960938 327.050781 318.296875 270.976562 C 265.515625 180.371094 137.183594 156.761719 137.183594 156.761719 "/></g></g></g></g></svg>